<svg width="24" height="24" viewBox="0 0 24 24" fill="none" xmlns="http://www.w3.org/2000/svg">
<path d="M17.1405 4.5057C15.123 4.5612 13.5592 5.1087 12.0367 5.6382C10.4085 6.2037 8.87175 6.73695 6.7425 6.7587C5.31975 6.7812 3.89475 6.5352 2.4945 6.0507L1.5 5.7072V18.5187L1.9995 18.6964C3.30375 19.1577 4.63725 19.4239 5.96475 19.4869C6.1755 19.4967 6.38175 19.5019 6.58425 19.5019C8.844 19.5019 10.5743 18.9019 12.252 18.3229C14.0205 17.7109 15.6885 17.1327 17.9647 17.2399C19.1713 17.3019 20.3622 17.5405 21.4995 17.9479L22.5 18.3019V5.4852L22.0065 5.3052C20.7303 4.84042 19.3906 4.57334 18.0338 4.5132C17.7362 4.49999 17.4382 4.49749 17.1405 4.5057ZM17.181 5.9952C17.436 5.9877 17.697 5.9877 17.9678 5.9982C18.2483 6.0102 18.5287 6.0357 18.8085 6.0687C18.9226 6.53928 19.2147 6.94732 19.6234 7.20704C20.032 7.46676 20.5255 7.55796 21 7.46145V14.2879C20.7543 14.2379 20.5011 14.2378 20.2553 14.2876C20.0096 14.3374 19.7764 14.436 19.5695 14.5777C19.3626 14.7194 19.1864 14.9011 19.0511 15.1123C18.9159 15.3234 18.8244 15.5595 18.7822 15.8067C18.5338 15.7812 18.2847 15.7626 18.0353 15.7512C15.474 15.6387 13.5855 16.2829 11.76 16.9159C9.98925 17.5294 8.3115 18.1092 6.03675 18.0012C5.75344 17.9864 5.47076 17.9614 5.18925 17.9262C5.07417 17.4569 4.78202 17.0503 4.37395 16.7916C3.96589 16.5328 3.47355 16.4419 3 16.5379V9.71145C3.24716 9.76175 3.50194 9.76152 3.74901 9.71078C3.99608 9.66004 4.23033 9.55983 4.43766 9.41619C4.64499 9.27255 4.82112 9.08845 4.95544 8.87496C5.08976 8.66148 5.1795 8.42302 5.21925 8.17395C5.733 8.2272 6.24675 8.25795 6.759 8.2497C9.13275 8.2257 10.8585 7.62495 12.5287 7.04445C13.9995 6.5322 15.4013 6.0507 17.181 5.9952ZM12 8.2497C10.3455 8.2497 9 9.93195 9 11.9997C9 14.0674 10.3455 15.7497 12 15.7497C13.6545 15.7497 15 14.0674 15 11.9997C15 9.93195 13.6545 8.2497 12 8.2497ZM12 9.7497C12.813 9.7497 13.5 10.7802 13.5 11.9997C13.5 13.2192 12.813 14.2497 12 14.2497C11.187 14.2497 10.5 13.2192 10.5 11.9997C10.5 10.7802 11.187 9.7497 12 9.7497ZM17.625 9.7497C17.3266 9.7497 17.0405 9.86822 16.8295 10.0792C16.6185 10.2902 16.5 10.5763 16.5 10.8747C16.5 11.1731 16.6185 11.4592 16.8295 11.6702C17.0405 11.8812 17.3266 11.9997 17.625 11.9997C17.9234 11.9997 18.2095 11.8812 18.4205 11.6702C18.6315 11.4592 18.75 11.1731 18.75 10.8747C18.75 10.5763 18.6315 10.2902 18.4205 10.0792C18.2095 9.86822 17.9234 9.7497 17.625 9.7497ZM6.375 11.9997C6.07663 11.9997 5.79048 12.1182 5.5795 12.3292C5.36853 12.5402 5.25 12.8263 5.25 13.1247C5.25 13.4231 5.36853 13.7092 5.5795 13.9202C5.79048 14.1312 6.07663 14.2497 6.375 14.2497C6.67337 14.2497 6.95952 14.1312 7.1705 13.9202C7.38147 13.7092 7.5 13.4231 7.5 13.1247C7.5 12.8263 7.38147 12.5402 7.1705 12.3292C6.95952 12.1182 6.67337 11.9997 6.375 11.9997Z" fill="#868686"/>
</svg>
